<svg xmlns="http://www.w3.org/2000/svg" viewBox="0 0 156 156">
  <defs>
    <style>
      .a {
        fill: none;
        stroke: #8797a2;
        stroke-width: 6px;
      }

      .a, .b {
        stroke-miterlimit: 10;
      }

      .b {
        fill: #fcc453;
        stroke: #fcc453;
      }
    </style>
  </defs>
  <title>github</title>
  <circle class="a" cx="78" cy="78" r="75"/>
  <path class="b" d="M94.13,126.49c0.29-9.87.36-18.93-.64-25.14A12,12,0,0,0,90,94.57c17.47-1.76,27.13-10.6,28.58-26.39,0.88-9.53-1.36-17.17-6-23.09a24.92,24.92,0,0,0-.75-16.9c-6.52.17-12.17,3-17.5,6.74a64.1,64.1,0,0,0-32.66,0c-6.2-4.34-11.18-6.6-17-6.66-1.69,5.48-2.55,11-.75,16.82C39,49.84,36.27,57.64,37.05,68.36c1.17,16,12.58,23.69,29.13,26a12.68,12.68,0,0,0-4,8.25c-2.88,1.67-6.51,2.06-10.63,1.65a9.81,9.81,0,0,1-6.66-4.81,17.48,17.48,0,0,0-5.5-6.41c-3.59-2.45-5.69-3.22-8-1.62-1.14.79,0.92,2.46,1.6,3,1.48,1.11,4.68,3.3,5.55,4.93a35,35,0,0,1,2.21,5.24,10.28,10.28,0,0,0,4.74,5.37,23.64,23.64,0,0,0,16.52,2l0.41,15.15Z" transform="translate(2.85 2.73)"/>
</svg>
