<svg xmlns="http://www.w3.org/2000/svg" viewBox="0 0 156 156">
  <defs>
    <style>
      .a {
        fill: #fcc453;
        stroke: #fcc453;
        stroke-width: 6px;
      }

      .a, .c {
        stroke-miterlimit: 10;
      }

      .b, .c {
        fill: #8797a2;
      }

      .c {
        stroke: #8797a2;
      }
    </style>
  </defs>
  <title>gplus</title>
  <circle class="a" cx="78" cy="78" r="75"/>
  <rect class="b" x="101.24" y="73.55" width="27.61" height="9.35"/>
  <rect class="b" x="110.06" y="64.31" width="9.9" height="27.96"/>
  <path class="c" d="M69.13,59.82L78,51.5c-5.37-5.29-12.35-9.08-21.53-8.76C43.66,43.17,35,48.94,29.89,57.26a34.2,34.2,0,0,0-5.44,18.51C24.49,83.58,26.8,89.83,31,95c5.64,6.81,12.2,11.1,20.22,12.15a37.16,37.16,0,0,0,19.87-2.84c5.82-2.49,9.92-7,13-12.38a25,25,0,0,0,3.05-12c0.06-2.32,0-9.3,0-9.3l-30.7-.08,0.15,11H75.16c-2,6-5.63,11.73-12.22,13.42a23.2,23.2,0,0,1-13.59-.76C41,90.31,36.7,83.46,36.72,74.42c0-10.18,6.62-17.18,17-19.26C60.11,53.89,65.52,55.76,69.13,59.82Z" transform="translate(3.13 3)"/>
</svg>
