<svg xmlns="http://www.w3.org/2000/svg" viewBox="0 0 156 156">
  <defs>
    <style>
      .a {
        fill: none;
        stroke: #8797a2;
        stroke-width: 6px;
      }

      .a, .b {
        stroke-miterlimit: 10;
      }

      .b, .c {
        fill: #fcc453;
      }

      .b {
        stroke: #fcc453;
      }
    </style>
  </defs>
  <title>phone</title>
  <circle class="a" cx="78" cy="78" r="75"/>
  <path class="b" d="M54,34.66c-5.6,1.36-11.24,5.46-13.56,8.67A17.75,17.75,0,0,0,37.94,51,4.52,4.52,0,0,0,38,52.32c2.28,11.94,5.94,23,11.67,32.8a8.55,8.55,0,0,0,.61.9c14.48,18.75,28.26,27.19,41.61,29.25a8,8,0,0,0,2.29,0,63,63,0,0,0,6.51-1.27A31.44,31.44,0,0,0,112.09,106l-23-11.65a7.21,7.21,0,0,1-4.52,2.27,7.49,7.49,0,0,1-6-2c-5-5.1-17-20.24-20.17-24.08a6.43,6.43,0,0,1-1.19-2.22c-1-3.47-.89-6.58,2.46-9.2Z" transform="translate(3 3)"/>
  <path class="b" d="M56.55,35l5.3,22.07a1.15,1.15,0,0,0,1.57.75,10.33,10.33,0,0,0,3.81-3.31,2.41,2.41,0,0,0,.47-2L64.14,36.16c0-.3-3.85-2.42-6.91-2.07A0.79,0.79,0,0,0,56.55,35Z" transform="translate(3 3)"/>
  <path class="c" d="M91.07,91.9l4.12-3.22a1.81,1.81,0,0,1,1.62-.3A72.32,72.32,0,0,1,114,96.25a1.85,1.85,0,0,1,.89,1.66l-0.25,5.58a0.57,0.57,0,0,1-.84.46L91.14,92.52A0.36,0.36,0,0,1,91.07,91.9Z" transform="translate(3 3)"/>
</svg>
