<svg xmlns="http://www.w3.org/2000/svg" viewBox="0 0 156 156">
  <defs>
    <style>
      .a {
        fill: none;
        stroke: #8797a2;
        stroke-width: 6px;
      }

      .a, .c, .d {
        stroke-miterlimit: 10;
      }

      .b, .c, .d {
        fill: #fcc453;
      }

      .c, .d {
        stroke: #fcc453;
      }

      .c {
        stroke-width: 3px;
      }
    </style>
  </defs>
  <title>soundcloud</title>
  <circle class="a" cx="78" cy="78" r="75"/>
  <path class="b" d="M26,80c-0.15-.15-0.29-0.19-0.41,0a29.76,29.76,0,0,0-.86,5.92,26.65,26.65,0,0,0,.86,5.89c0.12,0.16.26,0.12,0.4,0A27.85,27.85,0,0,0,27,85.87,37.08,37.08,0,0,0,26,80Z" transform="translate(3.13 2.5)"/>
  <path class="b" d="M29.81,76.71c-0.19-.23-0.36-0.3-0.51,0a57.21,57.21,0,0,0-1.07,9.21,51.24,51.24,0,0,0,1.07,9.16c0.14,0.24.32,0.19,0.5,0A53.47,53.47,0,0,0,31,85.87,71.15,71.15,0,0,0,29.81,76.71Z" transform="translate(3.13 2.5)"/>
  <path class="b" d="M33.8,74.93c-0.2-.27-0.38-0.35-0.54,0a74.23,74.23,0,0,0-1.14,10.85,66.48,66.48,0,0,0,1.14,10.78c0.15,0.29.34,0.22,0.54,0A69.35,69.35,0,0,0,35,85.72,92.28,92.28,0,0,0,33.8,74.93Z" transform="translate(3.13 2.5)"/>
  <path class="b" d="M38.08,74.73a0.58,0.58,0,0,0-.95,0A80.57,80.57,0,0,0,36.2,86a69.4,69.4,0,0,0,.94,11.16,0.45,0.45,0,0,0,.74,0A74.16,74.16,0,0,0,39.1,85.9,103.4,103.4,0,0,0,38.08,74.73Z" transform="translate(3.13 2.5)"/>
  <path class="b" d="M42.15,75.54a0.6,0.6,0,0,0-.95,0,75.31,75.31,0,0,0-.93,10.85,64.87,64.87,0,0,0,.94,10.78,0.45,0.45,0,0,0,.74,0,69.35,69.35,0,0,0,1.22-10.84A96.66,96.66,0,0,0,42.15,75.54Z" transform="translate(3.13 2.5)"/>
  <path class="c" d="M24.57,97.67" transform="translate(3.13 2.5)"/>
  <path class="c" d="M80.14,97.67" transform="translate(3.13 2.5)"/>
  <path class="b" d="M46.08,68.76a0.56,0.56,0,0,0-1,.12,127.72,127.72,0,0,0-.94,14.17,109.6,109.6,0,0,0,.94,14.06,0.79,0.79,0,0,0,1.15,0,112.37,112.37,0,0,0,1-14.13C47.22,79.43,46.4,70.81,46.08,68.76Z" transform="translate(3.13 2.5)"/>
  <path class="b" d="M50.15,65.11a0.54,0.54,0,0,0-1,.14c-0.55,4.83-.88,10.31-0.94,16A138.78,138.78,0,0,0,49.15,97a0.73,0.73,0,0,0,1.15,0,142.25,142.25,0,0,0,1-15.91C51.29,77.12,50.47,67.42,50.15,65.11Z" transform="translate(3.13 2.5)"/>
  <path class="b" d="M54.43,63.44c-0.2-.42-1-0.6-1.2-0.05-0.55,5.11-.88,10.9-0.94,16.89A155.27,155.27,0,0,0,53.22,97a0.71,0.71,0,0,0,1.15,0,159.15,159.15,0,0,0,1-16.83C55.36,76,54.75,65.89,54.43,63.44Z" transform="translate(3.13 2.5)"/>
  <path class="b" d="M58.71,62.6c-0.2-.43-1.26-0.58-1.41,0-0.55,5.24-.88,11.17-0.94,17.29A162.76,162.76,0,0,0,57.29,97a0.91,0.91,0,0,0,1.35,0,160.87,160.87,0,0,0,.81-17.24C59.43,75.44,59,65.11,58.71,62.6Z" transform="translate(3.13 2.5)"/>
  <path class="b" d="M63,63c-0.2-.43-1.26-0.57-1.41,0C61,68.17,60.7,74,60.63,80.08A158.84,158.84,0,0,0,61.57,97a0.91,0.91,0,0,0,1.35,0,157,157,0,0,0,.81-17C63.71,75.71,63.31,65.5,63,63Z" transform="translate(3.13 2.5)"/>
  <path class="b" d="M67.26,63.73c-0.2-.42-1.64-0.47-1.79.07-0.55,5.07-.49,10.71-0.56,16.64a145.09,145.09,0,0,0,.56,16.49,1.42,1.42,0,0,0,1.72.1A150.6,150.6,0,0,0,68,80.35C68,76.15,67.59,66.16,67.26,63.73Z" transform="translate(3.13 2.5)"/>
  <path class="b" d="M71.54,59.63c-0.2-.47-1.68-0.56-1.83,0-0.55,5.68-.45,12-0.52,18.7a182.77,182.77,0,0,0,.56,18.52c0.15,0.49,1.53.48,1.73,0.1,0.67-6.65.84-14,.81-18.71S71.86,62.35,71.54,59.63Z" transform="translate(3.13 2.5)"/>
  <path class="b" d="M76,57.24c-0.22-.5-1.83-0.59-2,0-0.6,6-.49,12.81-0.57,19.89A189.33,189.33,0,0,0,74,96.87c0.17,0.52,1.67.51,1.89,0.1a196.33,196.33,0,0,0,.89-19.9C76.74,72.06,76.3,60.13,76,57.24Z" transform="translate(3.13 2.5)"/>
  <path class="d" d="M78.45,56.83a1.24,1.24,0,0,1,.74-1.13c6.38-2.8,13.08-2.39,19.54,1.14,6.67,3.64,9.82,9.68,10.59,16.43-0.23.42,1.65-.42,5.3-0.45a12.45,12.45,0,0,1,6.06,1.67,11.45,11.45,0,0,1,5.61,8.45,27.07,27.07,0,0,1,0,5.18,9.78,9.78,0,0,1-3.84,6.32,12.33,12.33,0,0,1-6.54,2.93c-9.16.64-36.73-.09-36.73-0.09a0.74,0.74,0,0,1-.74-0.74V56.83Z" transform="translate(3.13 2.5)"/>
</svg>
