<svg xmlns="http://www.w3.org/2000/svg" viewBox="0 0 156 156">
  <defs>
    <style>
      .a {
        fill: #fcc453;
      }

      .b {
        fill: none;
        stroke: #8797a2;
        stroke-miterlimit: 10;
        stroke-width: 6px;
      }
    </style>
  </defs>
  <title>twitter</title>
  <path class="a" d="M78.66,65.16c-17-1.3-31.1-8.84-42.8-21.76C30.4,55,33,64.05,42,71.1a16.8,16.8,0,0,1-9.53-2.52c0,10.06,5.7,16.42,15.47,20.14a6.92,6.92,0,0,1-7.55.72C43,97.92,48.94,103,58.88,104c-7.31,7.81-17.29,10.41-29.31,9,9.13,5.87,19.14,9.41,30.75,8.81,15.32-.18,28.78-4.17,39.38-14a58.05,58.05,0,0,0,15.82-22.84,52.91,52.91,0,0,0,4.32-24.64c4-2.41,7.13-6.13,9.89-10.43-3.61,2.07-7.15,3.07-10.61,2.34a24.34,24.34,0,0,0,8.09-10.43,43.12,43.12,0,0,1-13.13,4.5,23.82,23.82,0,0,0-9.35-5.93,24.36,24.36,0,0,0-19.42,4.14C78.84,50.26,76.8,57.2,78.66,65.16Z" transform="translate(2.97 2.25)"/>
  <circle class="b" cx="78" cy="78" r="75"/>
</svg>
