<svg xmlns="http://www.w3.org/2000/svg" viewBox="0 0 156 156">
  <defs>
    <style>
      .a {
        fill: none;
        stroke: #8797a2;
        stroke-width: 6px;
      }

      .a, .b {
        stroke-miterlimit: 10;
      }

      .b {
        fill: #fcc453;
        stroke: #fcc453;
      }
    </style>
  </defs>
  <title>web</title>
  <circle class="a" cx="78" cy="78" r="75"/>
  <path class="b" d="M65.17,28.08c-10.54,2.63-19.06,7.31-25.39,15A75.75,75.75,0,0,0,51.42,49.2,90.06,90.06,0,0,1,65.17,28.08Z" transform="translate(2.25 2.25)"/>
  <path class="b" d="M73.5,28.08c-8,6.45-12.95,14.08-16.72,22.9A63,63,0,0,0,73.5,53.84V28.08Z" transform="translate(2.25 2.25)"/>
  <path class="b" d="M78.5,28.08c8,6.45,12.95,14.08,16.72,22.9A56.84,56.84,0,0,1,78.5,53.84V28.08Z" transform="translate(2.25 2.25)"/>
  <path class="b" d="M86.55,28.08c10.54,2.63,19.06,7.31,25.39,15a75.75,75.75,0,0,1-11.63,6.09A90.06,90.06,0,0,0,86.55,28.08Z" transform="translate(2.25 2.25)"/>
  <path class="b" d="M49.49,54.11a71.1,71.1,0,0,1-13.07-7.18A51.29,51.29,0,0,0,27.52,72.5H46.31A76.59,76.59,0,0,1,49.49,54.11Z" transform="translate(2.25 2.25)"/>
  <path class="b" d="M54.48,55.89a70.42,70.42,0,0,0-3,16.61H73.35L73.24,59A99.92,99.92,0,0,1,54.48,55.89Z" transform="translate(2.25 2.25)"/>
  <path class="b" d="M97.42,55.89a70.42,70.42,0,0,1,3,16.61H78.55L78.66,59A99.92,99.92,0,0,0,97.42,55.89Z" transform="translate(2.25 2.25)"/>
  <path class="b" d="M102.4,54.11a71.1,71.1,0,0,0,13.07-7.18,51.29,51.29,0,0,1,8.89,25.58H105.58A76.59,76.59,0,0,0,102.4,54.11Z" transform="translate(2.25 2.25)"/>
  <path class="b" d="M65.17,122.89c-10.54-2.63-19.06-7.31-25.39-15a75.75,75.75,0,0,1,11.63-6.09A90.06,90.06,0,0,0,65.17,122.89Z" transform="translate(2.25 2.25)"/>
  <path class="b" d="M73.5,122.89c-8-6.45-12.95-14.08-16.72-22.9A63,63,0,0,1,73.5,97.12v25.77Z" transform="translate(2.25 2.25)"/>
  <path class="b" d="M78.5,122.89c8-6.45,12.95-14.08,16.72-22.9A56.84,56.84,0,0,0,78.5,97.12v25.77Z" transform="translate(2.25 2.25)"/>
  <path class="b" d="M86.55,122.89c10.54-2.63,19.06-7.31,25.39-15a75.75,75.75,0,0,0-11.63-6.09A90.06,90.06,0,0,1,86.55,122.89Z" transform="translate(2.25 2.25)"/>
  <path class="b" d="M49.49,96.38a70.06,70.06,0,0,0-13.07,6.94C31.1,95.56,28.14,88.5,27.52,77.5H46.31A66.18,66.18,0,0,0,49.49,96.38Z" transform="translate(2.25 2.25)"/>
  <path class="b" d="M54.48,94.59a66,66,0,0,1-3-17.09H73.35L73.24,91.26A100.11,100.11,0,0,0,54.48,94.59Z" transform="translate(2.25 2.25)"/>
  <path class="b" d="M97.42,94.59a66,66,0,0,0,3-17.09H78.55l0.11,13.76A100.11,100.11,0,0,1,97.42,94.59Z" transform="translate(2.25 2.25)"/>
  <path class="b" d="M102.4,96.38a70.06,70.06,0,0,1,13.07,6.94c5.32-7.75,8.28-14.82,8.89-25.82H105.58A66.18,66.18,0,0,1,102.4,96.38Z" transform="translate(2.25 2.25)"/>
</svg>
